<svg width="126" height="36" viewBox="0 0 126 36" fill="none" xmlns="http://www.w3.org/2000/svg">
<rect width="126" height="36" rx="10" fill="#494AE2"/>
<path d="M17.2188 22V14.1484H22.6797V15.3086H18.4961V20.8281H22.6797V22H17.2188ZM18.0039 18.5547V17.4062H22.1992V18.5547H18.0039ZM28.4688 22V18.543C28.4688 18.0742 28.3633 17.7227 28.1523 17.4883C27.9414 17.2539 27.6289 17.1367 27.2148 17.1367C26.9258 17.1367 26.6406 17.2422 26.3594 17.4531C26.0859 17.6562 25.8438 17.8945 25.6328 18.168V17.0078C25.7578 16.8516 25.9141 16.6953 26.1016 16.5391C26.2891 16.3828 26.5 16.2539 26.7344 16.1523C26.9766 16.043 27.2305 15.9883 27.4961 15.9883C27.8945 15.9883 28.2578 16.0781 28.5859 16.2578C28.9141 16.4297 29.1719 16.6953 29.3594 17.0547C29.5547 17.4141 29.6523 17.8633 29.6523 18.4023V22H28.4688ZM24.4609 22V16.1172H25.6328V22H24.4609ZM33.707 22.1758C33.2227 22.1758 32.7734 22.0508 32.3594 21.8008C31.9531 21.5508 31.625 21.1992 31.375 20.7461C31.1328 20.2852 31.0117 19.7461 31.0117 19.1289C31.0117 18.4805 31.1328 17.9219 31.375 17.4531C31.625 16.9844 31.9609 16.625 32.3828 16.375C32.8125 16.1172 33.2891 15.9883 33.8125 15.9883C34.1406 15.9883 34.4727 16.0664 34.8086 16.2227C35.1523 16.3789 35.4414 16.5898 35.6758 16.8555V16.1172H36.8477V22H35.6758V21.0039C35.4883 21.3164 35.2227 21.5898 34.8789 21.8242C34.543 22.0586 34.1523 22.1758 33.707 22.1758ZM33.9531 21.0156C34.2734 21.0156 34.5625 20.9336 34.8203 20.7695C35.0859 20.5977 35.2969 20.3633 35.4531 20.0664C35.6094 19.7617 35.6836 19.4141 35.6758 19.0234V18.0039C35.4414 17.7383 35.1914 17.5273 34.9258 17.3711C34.668 17.2148 34.3711 17.1367 34.0352 17.1367C33.6602 17.1367 33.3359 17.2305 33.0625 17.418C32.7969 17.6055 32.5898 17.8516 32.4414 18.1562C32.3008 18.4609 32.2305 18.7852 32.2305 19.1289C32.2305 19.4727 32.3008 19.7891 32.4414 20.0781C32.5898 20.3672 32.793 20.5977 33.0508 20.7695C33.3086 20.9336 33.6094 21.0156 33.9531 21.0156ZM41.9102 22.1758C41.4648 22.1758 41.0742 22.0586 40.7383 21.8242C40.4023 21.5898 40.1367 21.3164 39.9414 21.0039V22H38.7695V13.5625H39.9414V16.8555C40.1836 16.5898 40.4727 16.3789 40.8086 16.2227C41.1445 16.0664 41.4805 15.9883 41.8164 15.9883C42.3398 15.9883 42.8125 16.1172 43.2344 16.375C43.6562 16.625 43.9883 16.9844 44.2305 17.4531C44.4805 17.9219 44.6055 18.4805 44.6055 19.1289C44.6055 19.7461 44.4844 20.2852 44.2422 20.7461C44 21.1992 43.6719 21.5508 43.2578 21.8008C42.8516 22.0508 42.4023 22.1758 41.9102 22.1758ZM41.6641 21.0039C42.0156 21.0039 42.3203 20.9219 42.5781 20.7578C42.8359 20.5859 43.0352 20.3594 43.1758 20.0781C43.3164 19.7891 43.3867 19.4727 43.3867 19.1289C43.3867 18.7852 43.3125 18.4609 43.1641 18.1562C43.0234 17.8516 42.8203 17.6055 42.5547 17.418C42.2891 17.2305 41.9648 17.1367 41.582 17.1367C41.2539 17.1367 40.957 17.2148 40.6914 17.3711C40.4336 17.5273 40.1875 17.7383 39.9531 18.0039L39.9414 19.0234C39.9414 19.4141 40.0156 19.7578 40.1641 20.0547C40.3203 20.3516 40.5312 20.5859 40.7969 20.7578C41.0625 20.9219 41.3516 21.0039 41.6641 21.0039ZM46.1172 22V13.5625H47.2891V22H46.1172ZM51.9062 22.1758C51.4688 22.1758 51.0586 22.0977 50.6758 21.9414C50.3008 21.7852 49.9727 21.5664 49.6914 21.2852C49.4102 21.0039 49.1914 20.6797 49.0352 20.3125C48.8789 19.9375 48.8008 19.5352 48.8008 19.1055C48.8008 18.543 48.9258 18.0273 49.1758 17.5586C49.4258 17.082 49.7695 16.7031 50.207 16.4219C50.6445 16.1328 51.1406 15.9883 51.6953 15.9883C52.2891 15.9883 52.7891 16.1133 53.1953 16.3633C53.6016 16.6133 53.9062 16.957 54.1094 17.3945C54.3203 17.8242 54.4258 18.3164 54.4258 18.8711V19.4688H49.8906V18.5664H53.2891C53.2578 18.2227 53.1602 17.9414 52.9961 17.7227C52.8398 17.5039 52.6445 17.3398 52.4102 17.2305C52.1836 17.1211 51.9414 17.0664 51.6836 17.0664C51.3398 17.0664 51.0391 17.1602 50.7812 17.3477C50.5312 17.5273 50.3359 17.7695 50.1953 18.0742C50.0547 18.3789 49.9844 18.7227 49.9844 19.1055C49.9844 19.4648 50.0625 19.793 50.2188 20.0898C50.3828 20.3867 50.6133 20.625 50.9102 20.8047C51.207 20.9844 51.5469 21.0742 51.9297 21.0742C52.3594 21.0742 52.75 20.9766 53.1016 20.7812C53.4609 20.5781 53.7578 20.3672 53.9922 20.1484V21.3203C53.875 21.4453 53.7109 21.5742 53.5 21.707C53.2891 21.8398 53.0469 21.9492 52.7734 22.0352C52.5 22.1289 52.2109 22.1758 51.9062 22.1758ZM59.6875 22V14.1484H60.9648V20.8164H65.1133V22H59.6875ZM69.332 22.1758C68.8945 22.1758 68.4883 22.0977 68.1133 21.9414C67.7383 21.7773 67.4062 21.5547 67.1172 21.2734C66.8359 20.9844 66.6172 20.6562 66.4609 20.2891C66.3047 19.9141 66.2266 19.5117 66.2266 19.082C66.2266 18.6602 66.3047 18.2617 66.4609 17.8867C66.6172 17.5117 66.8359 17.1836 67.1172 16.9023C67.4062 16.6211 67.7383 16.3984 68.1133 16.2344C68.4883 16.0703 68.8945 15.9883 69.332 15.9883C69.7695 15.9883 70.1758 16.0703 70.5508 16.2344C70.9258 16.3984 71.2539 16.6211 71.5352 16.9023C71.8242 17.1836 72.0469 17.5117 72.2031 17.8867C72.3594 18.2617 72.4375 18.6602 72.4375 19.082C72.4375 19.5117 72.3594 19.9141 72.2031 20.2891C72.0469 20.6562 71.8242 20.9844 71.5352 21.2734C71.2539 21.5547 70.9258 21.7773 70.5508 21.9414C70.1758 22.0977 69.7695 22.1758 69.332 22.1758ZM69.332 21.0391C69.6992 21.0391 70.0234 20.9531 70.3047 20.7812C70.5859 20.6094 70.8047 20.375 70.9609 20.0781C71.125 19.7812 71.207 19.4492 71.207 19.082C71.207 18.707 71.125 18.375 70.9609 18.0859C70.8047 17.7891 70.5859 17.5547 70.3047 17.3828C70.0234 17.2109 69.6992 17.125 69.332 17.125C68.9727 17.125 68.6484 17.2109 68.3594 17.3828C68.0781 17.5547 67.8555 17.7891 67.6914 18.0859C67.5352 18.375 67.457 18.707 67.457 19.082C67.457 19.4492 67.5352 19.7812 67.6914 20.0781C67.8555 20.375 68.0781 20.6094 68.3594 20.7812C68.6484 20.9531 68.9727 21.0391 69.332 21.0391ZM76.6211 22.1758C76.1758 22.1758 75.7656 22.0977 75.3906 21.9414C75.0156 21.7773 74.6875 21.5508 74.4062 21.2617C74.1328 20.9727 73.918 20.6445 73.7617 20.2773C73.6133 19.9023 73.5391 19.5078 73.5391 19.0938C73.5391 18.6797 73.6133 18.2852 73.7617 17.9102C73.918 17.5352 74.1328 17.207 74.4062 16.9258C74.6875 16.6367 75.0156 16.4102 75.3906 16.2461C75.7656 16.0742 76.1758 15.9883 76.6211 15.9883C77.0508 15.9883 77.4141 16.0586 77.7109 16.1992C78.0156 16.332 78.2344 16.4609 78.3672 16.5859V17.7109C78.1562 17.5547 77.9141 17.4219 77.6406 17.3125C77.375 17.1953 77.0508 17.1367 76.668 17.1367C76.3008 17.1367 75.9727 17.2266 75.6836 17.4062C75.3945 17.5859 75.168 17.8242 75.0039 18.1211C74.8477 18.4102 74.7695 18.7344 74.7695 19.0938C74.7695 19.4453 74.8477 19.7695 75.0039 20.0664C75.1602 20.3633 75.3828 20.6016 75.6719 20.7812C75.9609 20.9531 76.293 21.0391 76.668 21.0391C77.0508 21.0391 77.375 20.9844 77.6406 20.875C77.9141 20.7578 78.1562 20.6211 78.3672 20.4648V21.5898C78.2344 21.7148 78.0156 21.8438 77.7109 21.9766C77.4141 22.1094 77.0508 22.1758 76.6211 22.1758ZM82.1289 22.1758C81.6445 22.1758 81.1953 22.0508 80.7812 21.8008C80.375 21.5508 80.0469 21.1992 79.7969 20.7461C79.5547 20.2852 79.4336 19.7461 79.4336 19.1289C79.4336 18.4805 79.5547 17.9219 79.7969 17.4531C80.0469 16.9844 80.3828 16.625 80.8047 16.375C81.2344 16.1172 81.7109 15.9883 82.2344 15.9883C82.5625 15.9883 82.8945 16.0664 83.2305 16.2227C83.5742 16.3789 83.8633 16.5898 84.0977 16.8555V16.1172H85.2695V22H84.0977V21.0039C83.9102 21.3164 83.6445 21.5898 83.3008 21.8242C82.9648 22.0586 82.5742 22.1758 82.1289 22.1758ZM82.375 21.0156C82.6953 21.0156 82.9844 20.9336 83.2422 20.7695C83.5078 20.5977 83.7188 20.3633 83.875 20.0664C84.0312 19.7617 84.1055 19.4141 84.0977 19.0234V18.0039C83.8633 17.7383 83.6133 17.5273 83.3477 17.3711C83.0898 17.2148 82.793 17.1367 82.457 17.1367C82.082 17.1367 81.7578 17.2305 81.4844 17.418C81.2188 17.6055 81.0117 17.8516 80.8633 18.1562C80.7227 18.4609 80.6523 18.7852 80.6523 19.1289C80.6523 19.4727 80.7227 19.7891 80.8633 20.0781C81.0117 20.3672 81.2148 20.5977 81.4727 20.7695C81.7305 20.9336 82.0312 21.0156 82.375 21.0156ZM89.5352 22.1758C89.1992 22.1758 88.9023 22.1055 88.6445 21.9648C88.3867 21.8164 88.1836 21.6133 88.0352 21.3555C87.8867 21.0898 87.8125 20.7773 87.8125 20.418V17.1602H86.7461V16.6797C87.1289 16.5234 87.4453 16.2578 87.6953 15.8828C87.9531 15.5 88.1758 15.0273 88.3633 14.4648H88.9844V16.1172H90.8359V17.1602H88.9844V20.2422C88.9844 20.4922 89.0586 20.6914 89.207 20.8398C89.3633 20.9805 89.5703 21.0508 89.8281 21.0508C90.0625 21.0508 90.2695 21.0195 90.4492 20.957C90.6367 20.8945 90.793 20.8281 90.918 20.7578V21.7656C90.7695 21.8984 90.5781 22 90.3438 22.0703C90.1172 22.1406 89.8477 22.1758 89.5352 22.1758ZM93.6016 14.957C93.3516 14.957 93.1406 14.8672 92.9688 14.6875C92.7969 14.5078 92.7109 14.3047 92.7109 14.0781C92.7109 13.8438 92.7969 13.6406 92.9688 13.4688C93.1406 13.2891 93.3516 13.1992 93.6016 13.1992C93.7656 13.1992 93.9141 13.2422 94.0469 13.3281C94.1797 13.4062 94.2852 13.5117 94.3633 13.6445C94.4492 13.7773 94.4922 13.9219 94.4922 14.0781C94.4922 14.2266 94.4492 14.3711 94.3633 14.5117C94.2852 14.6445 94.1797 14.7539 94.0469 14.8398C93.9141 14.918 93.7656 14.957 93.6016 14.957ZM93.1445 22V16.1172H94.3164V22H93.1445ZM92.207 17.1719V16.1172H94.3164V17.1719H92.207ZM98.9922 22.1758C98.5547 22.1758 98.1484 22.0977 97.7734 21.9414C97.3984 21.7773 97.0664 21.5547 96.7773 21.2734C96.4961 20.9844 96.2773 20.6562 96.1211 20.2891C95.9648 19.9141 95.8867 19.5117 95.8867 19.082C95.8867 18.6602 95.9648 18.2617 96.1211 17.8867C96.2773 17.5117 96.4961 17.1836 96.7773 16.9023C97.0664 16.6211 97.3984 16.3984 97.7734 16.2344C98.1484 16.0703 98.5547 15.9883 98.9922 15.9883C99.4297 15.9883 99.8359 16.0703 100.211 16.2344C100.586 16.3984 100.914 16.6211 101.195 16.9023C101.484 17.1836 101.707 17.5117 101.863 17.8867C102.02 18.2617 102.098 18.6602 102.098 19.082C102.098 19.5117 102.02 19.9141 101.863 20.2891C101.707 20.6562 101.484 20.9844 101.195 21.2734C100.914 21.5547 100.586 21.7773 100.211 21.9414C99.8359 22.0977 99.4297 22.1758 98.9922 22.1758ZM98.9922 21.0391C99.3594 21.0391 99.6836 20.9531 99.9648 20.7812C100.246 20.6094 100.465 20.375 100.621 20.0781C100.785 19.7812 100.867 19.4492 100.867 19.082C100.867 18.707 100.785 18.375 100.621 18.0859C100.465 17.7891 100.246 17.5547 99.9648 17.3828C99.6836 17.2109 99.3594 17.125 98.9922 17.125C98.6328 17.125 98.3086 17.2109 98.0195 17.3828C97.7383 17.5547 97.5156 17.7891 97.3516 18.0859C97.1953 18.375 97.1172 18.707 97.1172 19.082C97.1172 19.4492 97.1953 19.7812 97.3516 20.0781C97.5156 20.375 97.7383 20.6094 98.0195 20.7812C98.3086 20.9531 98.6328 21.0391 98.9922 21.0391ZM107.617 22V18.543C107.617 18.0742 107.512 17.7227 107.301 17.4883C107.09 17.2539 106.777 17.1367 106.363 17.1367C106.074 17.1367 105.789 17.2422 105.508 17.4531C105.234 17.6562 104.992 17.8945 104.781 18.168V17.0078C104.906 16.8516 105.062 16.6953 105.25 16.5391C105.438 16.3828 105.648 16.2539 105.883 16.1523C106.125 16.043 106.379 15.9883 106.645 15.9883C107.043 15.9883 107.406 16.0781 107.734 16.2578C108.062 16.4297 108.32 16.6953 108.508 17.0547C108.703 17.4141 108.801 17.8633 108.801 18.4023V22H107.617ZM103.609 22V16.1172H104.781V22H103.609Z" fill="white"/>
</svg>
